<svg class="main-svg" xmlns="http://www.w3.org/2000/svg" xmlns:xlink="http://www.w3.org/1999/xlink" width="432" height="408" style="" viewBox="0 0 432 408"><rect x="0" y="0" width="432" height="408" style="fill: rgb(255, 255, 255); fill-opacity: 1;"/><defs id="defs-1f66ae"><g class="clips"/><g class="gradients"/><g class="patterns"/></defs><g class="bglayer"/><g class="layer-below"><g class="imagelayer"/><g class="shapelayer"/></g><g class="cartesianlayer"/><g class="polarlayer"/><g class="smithlayer"/><g class="ternarylayer"/><g class="geolayer"/><g class="funnelarealayer"/><g class="pielayer"/><g class="iciclelayer"/><g class="treemaplayer"/><g class="sunburstlayer"/><g class="glimages"/><g class="sankey" transform="translate(20,50)matrix(1 0 0 1 0 0)" style="box-sizing: content-box; position: absolute; left: 0px; shape-rendering: geometricprecision; pointer-events: none;"><g class="sankey-links" style="fill: none;"><path class="sankey-link" d="M10,85.79999999999987C100.5,85.79999999999987 100.5,55.40000000000018 191,55.40000000000018L191,85.70000000000019C100.5,85.70000000000019 100.5,116.09999999999988 10,116.09999999999988Z" style="stroke: rgb(68, 68, 68); stroke-opacity: 1; fill: rgb(255, 177, 140); fill-opacity: 1; stroke-width: 0; opacity: 1;"/><path class="sankey-link" d="M10,116.09999999999987C100.5,116.09999999999987 100.5,156.30000000000004 191,156.30000000000004L191,166.40000000000006C100.5,166.40000000000006 100.5,126.19999999999986 10,126.19999999999986Z" style="stroke: rgb(68, 68, 68); stroke-opacity: 1; fill: rgb(255, 177, 140); fill-opacity: 1; stroke-width: 0; opacity: 1;"/><path class="sankey-link" d="M10,126.19999999999986C100.5,126.19999999999986 100.5,287.5 191,287.5L191,297.6C100.5,297.6 100.5,136.29999999999987 10,136.29999999999987Z" style="stroke: rgb(68, 68, 68); stroke-opacity: 1; fill: rgb(255, 177, 140); fill-opacity: 1; stroke-width: 0; opacity: 1;"/><path class="sankey-link" d="M10,-5.684341886080802e-14C100.5,-5.684341886080802e-14 100.5,15.000000000000174 191,15.000000000000174L191,55.400000000000176C100.5,55.400000000000176 100.5,40.39999999999994 10,40.39999999999994Z" style="stroke: rgb(68, 68, 68); stroke-opacity: 1; fill: rgb(27, 190, 185); fill-opacity: 1; stroke-width: 0; opacity: 1;"/><path class="sankey-link" d="M10,60.59999999999995C100.5,60.59999999999995 100.5,211.7999999999999 191,211.7999999999999L191,221.89999999999992C100.5,221.89999999999992 100.5,70.69999999999995 10,70.69999999999995Z" style="stroke: rgb(68, 68, 68); stroke-opacity: 1; fill: rgb(27, 190, 185); fill-opacity: 1; stroke-width: 0; opacity: 1;"/><path class="sankey-link" d="M10,50.49999999999994C100.5,50.49999999999994 100.5,146.20000000000005 191,146.20000000000005L191,156.30000000000007C100.5,156.30000000000007 100.5,60.59999999999994 10,60.59999999999994Z" style="stroke: rgb(68, 68, 68); stroke-opacity: 1; fill: rgb(27, 190, 185); fill-opacity: 1; stroke-width: 0; opacity: 1;"/><path class="sankey-link" d="M10,70.69999999999995C100.5,70.69999999999995 100.5,277.4 191,277.4L191,287.5C100.5,287.5 100.5,80.79999999999994 10,80.79999999999994Z" style="stroke: rgb(68, 68, 68); stroke-opacity: 1; fill: rgb(27, 190, 185); fill-opacity: 1; stroke-width: 0; opacity: 1;"/><path class="sankey-link" d="M10,40.39999999999994C100.5,40.39999999999994 100.5,131.10000000000008 191,131.10000000000008L191,141.2000000000001C100.5,141.2000000000001 100.5,50.499999999999936 10,50.499999999999936Z" style="stroke: rgb(68, 68, 68); stroke-opacity: 1; fill: rgb(27, 190, 185); fill-opacity: 1; stroke-width: 0; opacity: 1;"/><path class="sankey-link" d="M10,141.2999999999998C100.5,141.2999999999998 100.5,85.70000000000017 191,85.70000000000017L191,95.80000000000017C100.5,95.80000000000017 100.5,151.39999999999984 10,151.39999999999984Z" style="stroke: rgb(68, 68, 68); stroke-opacity: 1; fill: rgb(255, 158, 0); fill-opacity: 1; stroke-width: 0; opacity: 1;"/><path class="sankey-link" d="M10,171.5999999999998C100.5,171.5999999999998 100.5,221.8999999999999 191,221.8999999999999L191,242.09999999999988C100.5,242.09999999999988 100.5,191.79999999999978 10,191.79999999999978Z" style="stroke: rgb(68, 68, 68); stroke-opacity: 1; fill: rgb(255, 158, 0); fill-opacity: 1; stroke-width: 0; opacity: 1;"/><path class="sankey-link" d="M10,151.3999999999998C100.5,151.3999999999998 100.5,166.40000000000003 191,166.40000000000003L191,186.60000000000002C100.5,186.60000000000002 100.5,171.5999999999998 10,171.5999999999998Z" style="stroke: rgb(68, 68, 68); stroke-opacity: 1; fill: rgb(255, 158, 0); fill-opacity: 1; stroke-width: 0; opacity: 1;"/><path class="sankey-link" d="M10,191.79999999999978C100.5,191.79999999999978 100.5,297.6 191,297.6L191,307.70000000000005C100.5,307.70000000000005 100.5,201.8999999999998 10,201.8999999999998Z" style="stroke: rgb(68, 68, 68); stroke-opacity: 1; fill: rgb(255, 158, 0); fill-opacity: 1; stroke-width: 0; opacity: 1;"/><path class="sankey-link" d="M10,242.1999999999999C100.5,242.1999999999999 100.5,105.90000000000016 191,105.90000000000016L191,116.00000000000016C100.5,116.00000000000016 100.5,252.29999999999993 10,252.29999999999993Z" style="stroke: rgb(68, 68, 68); stroke-opacity: 1; fill: rgb(255, 132, 193); fill-opacity: 1; stroke-width: 0; opacity: 1;"/><path class="sankey-link" d="M10,252.2999999999999C100.5,252.2999999999999 100.5,252.19999999999987 191,252.19999999999987L191,262.2999999999999C100.5,262.2999999999999 100.5,262.3999999999999 10,262.3999999999999Z" style="stroke: rgb(68, 68, 68); stroke-opacity: 1; fill: rgb(255, 132, 193); fill-opacity: 1; stroke-width: 0; opacity: 1;"/><path class="sankey-link" d="M10,262.3999999999999C100.5,262.3999999999999 100.5,307.70000000000005 191,307.70000000000005L191,317.80000000000007C100.5,317.80000000000007 100.5,272.49999999999994 10,272.49999999999994Z" style="stroke: rgb(68, 68, 68); stroke-opacity: 1; fill: rgb(255, 132, 193); fill-opacity: 1; stroke-width: 0; opacity: 1;"/><path class="sankey-link" d="M10,312.79999999999984C100.5,312.79999999999984 100.5,262.2999999999999 191,262.2999999999999L191,272.3999999999999C100.5,272.3999999999999 100.5,322.89999999999986 10,322.89999999999986Z" style="stroke: rgb(68, 68, 68); stroke-opacity: 1; fill: rgb(159, 198, 160); fill-opacity: 1; stroke-width: 0; opacity: 1;"/><path class="sankey-link" d="M10,327.9C100.5,327.9 100.5,327.9000000000001 191,327.9000000000001L191,338.0000000000001C100.5,338.0000000000001 100.5,338 10,338Z" style="stroke: rgb(68, 68, 68); stroke-opacity: 1; fill: rgb(0, 213, 218); fill-opacity: 1; stroke-width: 0; opacity: 1;"/><path class="sankey-link" d="M10,277.49999999999983C100.5,277.49999999999983 100.5,116.00000000000016 191,116.00000000000016L191,126.10000000000015C100.5,126.10000000000015 100.5,287.59999999999985 10,287.59999999999985Z" style="stroke: rgb(68, 68, 68); stroke-opacity: 1; fill: rgb(255, 220, 0); fill-opacity: 1; stroke-width: 0; opacity: 1;"/><path class="sankey-link" d="M10,287.59999999999985C100.5,287.59999999999985 100.5,196.70000000000002 191,196.70000000000002L191,206.80000000000004C100.5,206.80000000000004 100.5,297.6999999999999 10,297.6999999999999Z" style="stroke: rgb(68, 68, 68); stroke-opacity: 1; fill: rgb(255, 220, 0); fill-opacity: 1; stroke-width: 0; opacity: 1;"/><path class="sankey-link" d="M10,297.6999999999999C100.5,297.6999999999999 100.5,317.80000000000007 191,317.80000000000007L191,327.9000000000001C100.5,327.9000000000001 100.5,307.7999999999999 10,307.7999999999999Z" style="stroke: rgb(68, 68, 68); stroke-opacity: 1; fill: rgb(255, 220, 0); fill-opacity: 1; stroke-width: 0; opacity: 1;"/><path class="sankey-link" d="M10,206.8999999999999C100.5,206.8999999999999 100.5,95.80000000000017 191,95.80000000000017L191,105.90000000000016C100.5,105.90000000000016 100.5,216.99999999999991 10,216.99999999999991Z" style="stroke: rgb(68, 68, 68); stroke-opacity: 1; fill: rgb(200, 113, 220); fill-opacity: 1; stroke-width: 0; opacity: 1;"/><path class="sankey-link" d="M10,227.09999999999988C100.5,227.09999999999988 100.5,242.09999999999988 191,242.09999999999988L191,252.1999999999999C100.5,252.1999999999999 100.5,237.1999999999999 10,237.1999999999999Z" style="stroke: rgb(68, 68, 68); stroke-opacity: 1; fill: rgb(200, 113, 220); fill-opacity: 1; stroke-width: 0; opacity: 1;"/><path class="sankey-link" d="M10,216.9999999999999C100.5,216.9999999999999 100.5,186.60000000000002 191,186.60000000000002L191,196.70000000000005C100.5,196.70000000000005 100.5,227.0999999999999 10,227.0999999999999Z" style="stroke: rgb(68, 68, 68); stroke-opacity: 1; fill: rgb(200, 113, 220); fill-opacity: 1; stroke-width: 0; opacity: 1;"/><path class="sankey-link" d="M201,85.70000000000019C291.5,85.70000000000019 291.5,231.23232277100283 382,231.23232277100283L382,251.43232277100282C291.5,251.43232277100282 291.5,105.90000000000018 201,105.90000000000018Z" style="stroke: rgb(68, 68, 68); stroke-opacity: 1; fill: rgb(151, 216, 251); fill-opacity: 1; stroke-width: 0; opacity: 1;"/><path class="sankey-link" d="M201,15.000000000000178C291.5,15.000000000000178 291.5,74.73232277100291 382,74.73232277100291L382,145.4323227710029C291.5,145.4323227710029 291.5,85.70000000000019 201,85.70000000000019Z" style="stroke: rgb(68, 68, 68); stroke-opacity: 1; fill: rgb(151, 216, 251); fill-opacity: 1; stroke-width: 0; opacity: 1;"/><path class="sankey-link" d="M201,105.90000000000019C291.5,105.90000000000019 291.5,306.93232277100304 382,306.93232277100304L382,317.03232277100307C291.5,317.03232277100307 291.5,116.00000000000018 201,116.00000000000018Z" style="stroke: rgb(68, 68, 68); stroke-opacity: 1; fill: rgb(151, 216, 251); fill-opacity: 1; stroke-width: 0; opacity: 1;"/><path class="sankey-link" d="M201,231.9999999999999C291.5,231.9999999999999 291.5,261.53232277100284 382,261.53232277100284L382,281.7323227710029C291.5,281.7323227710029 291.5,252.19999999999987 201,252.19999999999987Z" style="stroke: rgb(68, 68, 68); stroke-opacity: 1; fill: rgb(87, 149, 193); fill-opacity: 1; stroke-width: 0; opacity: 1;"/><path class="sankey-link" d="M201,211.7999999999999C291.5,211.7999999999999 291.5,185.8323227710029 382,185.8323227710029L382,206.0323227710029C291.5,206.0323227710029 291.5,231.9999999999999 201,231.9999999999999Z" style="stroke: rgb(68, 68, 68); stroke-opacity: 1; fill: rgb(87, 149, 193); fill-opacity: 1; stroke-width: 0; opacity: 1;"/><path class="sankey-link" d="M201,176.50000000000006C291.5,176.50000000000006 291.5,251.43232277100282 382,251.43232277100282L382,261.53232277100284C291.5,261.53232277100284 291.5,186.60000000000008 201,186.60000000000008Z" style="stroke: rgb(68, 68, 68); stroke-opacity: 1; fill: rgb(112, 173, 176); fill-opacity: 1; stroke-width: 0; opacity: 1;"/><path class="sankey-link" d="M201,146.20000000000005C291.5,146.20000000000005 291.5,155.5323227710029 382,155.5323227710029L382,185.8323227710029C291.5,185.8323227710029 291.5,176.50000000000006 201,176.50000000000006Z" style="stroke: rgb(68, 68, 68); stroke-opacity: 1; fill: rgb(112, 173, 176); fill-opacity: 1; stroke-width: 0; opacity: 1;"/><path class="sankey-link" d="M201,186.60000000000005C291.5,186.60000000000005 291.5,317.03232277100307 382,317.03232277100307L382,327.1323227710031C291.5,327.1323227710031 291.5,196.70000000000007 201,196.70000000000007Z" style="stroke: rgb(68, 68, 68); stroke-opacity: 1; fill: rgb(112, 173, 176); fill-opacity: 1; stroke-width: 0; opacity: 1;"/><path class="sankey-link" d="M201,297.59999999999997C291.5,297.59999999999997 291.5,281.7323227710028 382,281.7323227710028L382,301.9323227710029C291.5,301.9323227710029 291.5,317.8 201,317.8Z" style="stroke: rgb(68, 68, 68); stroke-opacity: 1; fill: rgb(117, 168, 241); fill-opacity: 1; stroke-width: 0; opacity: 1;"/><path class="sankey-link" d="M201,277.4C291.5,277.4 291.5,206.0323227710029 382,206.0323227710029L382,226.23232277100288C291.5,226.23232277100288 291.5,297.6 201,297.6Z" style="stroke: rgb(68, 68, 68); stroke-opacity: 1; fill: rgb(117, 168, 241); fill-opacity: 1; stroke-width: 0; opacity: 1;"/><path class="sankey-link" d="M201,317.79999999999995C291.5,317.79999999999995 291.5,327.1323227710031 382,327.1323227710031L382,337.2323227710031C291.5,337.2323227710031 291.5,327.9 201,327.9Z" style="stroke: rgb(68, 68, 68); stroke-opacity: 1; fill: rgb(117, 168, 241); fill-opacity: 1; stroke-width: 0; opacity: 1;"/><path class="sankey-link" d="M201,131.10000000000008C291.5,131.10000000000008 291.5,145.4323227710029 382,145.4323227710029L382,155.53232277100292C291.5,155.53232277100292 291.5,141.2000000000001 201,141.2000000000001Z" style="stroke: rgb(68, 68, 68); stroke-opacity: 1; fill: rgb(0, 203, 255); fill-opacity: 1; stroke-width: 0; opacity: 1;"/></g><g class="sankey-node-set" style="cursor: move;"><g class="sankey-node" transform="translate(0.000,85.800)" style="opacity: 1;"><rect class="node-rect" width="10" height="50.49999999999994" style="stroke-width: 1; stroke: rgb(0, 0, 0); stroke-opacity: 1; fill: rgb(255, 177, 140); fill-opacity: 1;"/><text class="node-label" data-notex="1" x="0" y="0" text-anchor="start" transform="translate(13.5,28.74999999999997)" style="cursor: default; font-family: 'Open Sans', verdana, arial, sans-serif; font-size: 10px; fill: rgb(42, 63, 95); fill-opacity: 1; text-shadow: rgb(255, 255, 255) 1px 1px 1px, rgb(255, 255, 255) -1px -1px 1px, rgb(255, 255, 255) 1px -1px 1px, rgb(255, 255, 255) -1px 1px 1px; white-space: pre;">PS</text></g><g class="sankey-node" transform="translate(0.000,-0.000)" style="opacity: 1;"><rect class="node-rect" width="10" height="80.79999999999993" style="stroke-width: 1; stroke: rgb(0, 0, 0); stroke-opacity: 1; fill: rgb(27, 190, 185); fill-opacity: 1;"/><text class="node-label" data-notex="1" x="0" y="0" text-anchor="start" transform="translate(13.5,43.89999999999996)" style="cursor: default; font-family: 'Open Sans', verdana, arial, sans-serif; font-size: 10px; fill: rgb(42, 63, 95); fill-opacity: 1; text-shadow: rgb(255, 255, 255) 1px 1px 1px, rgb(255, 255, 255) -1px -1px 1px, rgb(255, 255, 255) 1px -1px 1px, rgb(255, 255, 255) -1px 1px 1px; white-space: pre;">OMP</text></g><g class="sankey-node" transform="translate(0.000,141.300)" style="opacity: 1;"><rect class="node-rect" width="10" height="60.60000000000008" style="stroke-width: 1; stroke: rgb(0, 0, 0); stroke-opacity: 1; fill: rgb(255, 158, 0); fill-opacity: 1;"/><text class="node-label" data-notex="1" x="0" y="0" text-anchor="start" transform="translate(13.5,33.80000000000004)" style="cursor: default; font-family: 'Open Sans', verdana, arial, sans-serif; font-size: 10px; fill: rgb(42, 63, 95); fill-opacity: 1; text-shadow: rgb(255, 255, 255) 1px 1px 1px, rgb(255, 255, 255) -1px -1px 1px, rgb(255, 255, 255) 1px -1px 1px, rgb(255, 255, 255) -1px 1px 1px; white-space: pre;">CNP</text></g><g class="sankey-node" transform="translate(0.000,242.200)" style="opacity: 1;"><rect class="node-rect" width="10" height="30.299999999999926" style="stroke-width: 1; stroke: rgb(0, 0, 0); stroke-opacity: 1; fill: rgb(255, 132, 193); fill-opacity: 1;"/><text class="node-label" data-notex="1" x="0" y="0" text-anchor="start" transform="translate(13.5,18.649999999999963)" style="cursor: default; font-family: 'Open Sans', verdana, arial, sans-serif; font-size: 10px; fill: rgb(42, 63, 95); fill-opacity: 1; text-shadow: rgb(255, 255, 255) 1px 1px 1px, rgb(255, 255, 255) -1px -1px 1px, rgb(255, 255, 255) 1px -1px 1px, rgb(255, 255, 255) -1px 1px 1px; white-space: pre;">NRP</text></g><g class="sankey-node" transform="translate(0.000,312.800)" style="opacity: 1;"><rect class="node-rect" width="10" height="10.100000000000136" style="stroke-width: 1; stroke: rgb(0, 0, 0); stroke-opacity: 1; fill: rgb(159, 198, 160); fill-opacity: 1;"/><text class="node-label" data-notex="1" x="0" y="0" text-anchor="start" transform="translate(13.5,8.550000000000068)" style="cursor: default; font-family: 'Open Sans', verdana, arial, sans-serif; font-size: 10px; fill: rgb(42, 63, 95); fill-opacity: 1; text-shadow: rgb(255, 255, 255) 1px 1px 1px, rgb(255, 255, 255) -1px -1px 1px, rgb(255, 255, 255) 1px -1px 1px, rgb(255, 255, 255) -1px 1px 1px; white-space: pre;">NMCCC</text></g><g class="sankey-node" transform="translate(0.000,327.900)" style="opacity: 1;"><rect class="node-rect" width="10" height="10.100000000000023" style="stroke-width: 1; stroke: rgb(0, 0, 0); stroke-opacity: 1; fill: rgb(0, 213, 218); fill-opacity: 1;"/><text class="node-label" data-notex="1" x="0" y="0" text-anchor="start" transform="translate(13.5,8.550000000000011)" style="cursor: default; font-family: 'Open Sans', verdana, arial, sans-serif; font-size: 10px; fill: rgb(42, 63, 95); fill-opacity: 1; text-shadow: rgb(255, 255, 255) 1px 1px 1px, rgb(255, 255, 255) -1px -1px 1px, rgb(255, 255, 255) 1px -1px 1px, rgb(255, 255, 255) -1px 1px 1px; white-space: pre;">PEC</text></g><g class="sankey-node" transform="translate(0.000,277.500)" style="opacity: 1;"><rect class="node-rect" width="10" height="30.30000000000001" style="stroke-width: 1; stroke: rgb(0, 0, 0); stroke-opacity: 1; fill: rgb(255, 220, 0); fill-opacity: 1;"/><text class="node-label" data-notex="1" x="0" y="0" text-anchor="start" transform="translate(13.5,18.650000000000006)" style="cursor: default; font-family: 'Open Sans', verdana, arial, sans-serif; font-size: 10px; fill: rgb(42, 63, 95); fill-opacity: 1; text-shadow: rgb(255, 255, 255) 1px 1px 1px, rgb(255, 255, 255) -1px -1px 1px, rgb(255, 255, 255) 1px -1px 1px, rgb(255, 255, 255) -1px 1px 1px; white-space: pre;">NCDM</text></g><g class="sankey-node" transform="translate(0.000,206.900)" style="opacity: 1;"><rect class="node-rect" width="10" height="30.30000000000001" style="stroke-width: 1; stroke: rgb(0, 0, 0); stroke-opacity: 1; fill: rgb(200, 113, 220); fill-opacity: 1;"/><text class="node-label" data-notex="1" x="0" y="0" text-anchor="start" transform="translate(13.5,18.650000000000006)" style="cursor: default; font-family: 'Open Sans', verdana, arial, sans-serif; font-size: 10px; fill: rgb(42, 63, 95); fill-opacity: 1; text-shadow: rgb(255, 255, 255) 1px 1px 1px, rgb(255, 255, 255) -1px -1px 1px, rgb(255, 255, 255) 1px -1px 1px, rgb(255, 255, 255) -1px 1px 1px; white-space: pre;">RGS</text></g><g class="sankey-node" transform="translate(191.000,15.000)" style="opacity: 1;"><rect class="node-rect" width="10" height="111.09999999999991" style="stroke-width: 1; stroke: rgb(0, 0, 0); stroke-opacity: 1; fill: rgb(151, 216, 251); fill-opacity: 1;"/><text class="node-label" data-notex="1" x="0" y="0" text-anchor="start" transform="translate(13.5,59.049999999999955)" style="cursor: default; font-family: 'Open Sans', verdana, arial, sans-serif; font-size: 10px; fill: rgb(42, 63, 95); fill-opacity: 1; text-shadow: rgb(255, 255, 255) 1px 1px 1px, rgb(255, 255, 255) -1px -1px 1px, rgb(255, 255, 255) 1px -1px 1px, rgb(255, 255, 255) -1px 1px 1px; white-space: pre;">S</text></g><g class="sankey-node" transform="translate(191.000,211.800)" style="opacity: 1;"><rect class="node-rect" width="10" height="60.60000000000008" style="stroke-width: 1; stroke: rgb(0, 0, 0); stroke-opacity: 1; fill: rgb(87, 149, 193); fill-opacity: 1;"/><text class="node-label" data-notex="1" x="0" y="0" text-anchor="start" transform="translate(13.5,33.80000000000004)" style="cursor: default; font-family: 'Open Sans', verdana, arial, sans-serif; font-size: 10px; fill: rgb(42, 63, 95); fill-opacity: 1; text-shadow: rgb(255, 255, 255) 1px 1px 1px, rgb(255, 255, 255) -1px -1px 1px, rgb(255, 255, 255) 1px -1px 1px, rgb(255, 255, 255) -1px 1px 1px; white-space: pre;">F</text></g><g class="sankey-node" transform="translate(191.000,146.200)" style="opacity: 1;"><rect class="node-rect" width="10" height="60.59999999999985" style="stroke-width: 1; stroke: rgb(0, 0, 0); stroke-opacity: 1; fill: rgb(112, 173, 176); fill-opacity: 1;"/><text class="node-label" data-notex="1" x="0" y="0" text-anchor="start" transform="translate(13.5,33.799999999999926)" style="cursor: default; font-family: 'Open Sans', verdana, arial, sans-serif; font-size: 10px; fill: rgb(42, 63, 95); fill-opacity: 1; text-shadow: rgb(255, 255, 255) 1px 1px 1px, rgb(255, 255, 255) -1px -1px 1px, rgb(255, 255, 255) 1px -1px 1px, rgb(255, 255, 255) -1px 1px 1px; white-space: pre;">D</text></g><g class="sankey-node" transform="translate(191.000,277.400)" style="opacity: 1;"><rect class="node-rect" width="10" height="60.60000000000002" style="stroke-width: 1; stroke: rgb(0, 0, 0); stroke-opacity: 1; fill: rgb(117, 168, 241); fill-opacity: 1;"/><text class="node-label" data-notex="1" x="0" y="0" text-anchor="start" transform="translate(13.5,33.80000000000001)" style="cursor: default; font-family: 'Open Sans', verdana, arial, sans-serif; font-size: 10px; fill: rgb(42, 63, 95); fill-opacity: 1; text-shadow: rgb(255, 255, 255) 1px 1px 1px, rgb(255, 255, 255) -1px -1px 1px, rgb(255, 255, 255) 1px -1px 1px, rgb(255, 255, 255) -1px 1px 1px; white-space: pre;">N</text></g><g class="sankey-node" transform="translate(191.000,131.100)" style="opacity: 1;"><rect class="node-rect" width="10" height="10.099999999999966" style="stroke-width: 1; stroke: rgb(0, 0, 0); stroke-opacity: 1; fill: rgb(0, 203, 255); fill-opacity: 1;"/><text class="node-label" data-notex="1" x="0" y="0" text-anchor="start" transform="translate(13.5,8.549999999999983)" style="cursor: default; font-family: 'Open Sans', verdana, arial, sans-serif; font-size: 10px; fill: rgb(42, 63, 95); fill-opacity: 1; text-shadow: rgb(255, 255, 255) 1px 1px 1px, rgb(255, 255, 255) -1px -1px 1px, rgb(255, 255, 255) 1px -1px 1px, rgb(255, 255, 255) -1px 1px 1px; white-space: pre;">I</text></g><g class="sankey-node" transform="translate(382.000,231.232)" style="opacity: 1;"><rect class="node-rect" width="10" height="70.70000000000022" style="stroke-width: 1; stroke: rgb(0, 0, 0); stroke-opacity: 1; fill: rgb(70, 189, 132); fill-opacity: 1;"/><text class="node-label" data-notex="1" x="0" y="0" text-anchor="end" transform="translate(-3.5,38.85000000000011)" style="cursor: default; font-family: 'Open Sans', verdana, arial, sans-serif; font-size: 10px; fill: rgb(42, 63, 95); fill-opacity: 1; text-shadow: rgb(255, 255, 255) 1px 1px 1px, rgb(255, 255, 255) -1px -1px 1px, rgb(255, 255, 255) 1px -1px 1px, rgb(255, 255, 255) -1px 1px 1px; white-space: pre;">Reg</text></g><g class="sankey-node" transform="translate(382.000,74.732)" style="opacity: 1;"><rect class="node-rect" width="10" height="151.49999999999994" style="stroke-width: 1; stroke: rgb(0, 0, 0); stroke-opacity: 1; fill: rgb(164, 248, 168); fill-opacity: 1;"/><text class="node-label" data-notex="1" x="0" y="0" text-anchor="end" transform="translate(-3.5,79.24999999999997)" style="cursor: default; font-family: 'Open Sans', verdana, arial, sans-serif; font-size: 10px; fill: rgb(42, 63, 95); fill-opacity: 1; text-shadow: rgb(255, 255, 255) 1px 1px 1px, rgb(255, 255, 255) -1px -1px 1px, rgb(255, 255, 255) 1px -1px 1px, rgb(255, 255, 255) -1px 1px 1px; white-space: pre;">Aca</text></g><g class="sankey-node" transform="translate(382.000,306.932)" style="opacity: 1;"><rect class="node-rect" width="10" height="30.30000000000001" style="stroke-width: 1; stroke: rgb(0, 0, 0); stroke-opacity: 1; fill: rgb(158, 238, 160); fill-opacity: 1;"/><text class="node-label" data-notex="1" x="0" y="0" text-anchor="end" transform="translate(-3.5,18.650000000000006)" style="cursor: default; font-family: 'Open Sans', verdana, arial, sans-serif; font-size: 10px; fill: rgb(42, 63, 95); fill-opacity: 1; text-shadow: rgb(255, 255, 255) 1px 1px 1px, rgb(255, 255, 255) -1px -1px 1px, rgb(255, 255, 255) 1px -1px 1px, rgb(255, 255, 255) -1px 1px 1px; white-space: pre;">Oth</text></g></g></g><defs id="topdefs-1f66ae"><g class="clips"/></defs><g class="layer-above"><g class="imagelayer"/><g class="shapelayer"/></g><g class="infolayer"><g class="g-gtitle"><text class="gtitle" x="21.6" y="25" text-anchor="start" dy="0em" style="opacity: 1; font-family: 'Open Sans', verdana, arial, sans-serif; font-size: 10px; fill: rgb(42, 63, 95); fill-opacity: 1; white-space: pre;">Sankey Diagram</text></g><g class="first-render"/></g></svg>